<?xml version="1.0" encoding="UTF-8"?>
<svg id="Layer_1" data-name="Layer 1" xmlns="http://www.w3.org/2000/svg" xmlns:xlink="http://www.w3.org/1999/xlink" viewBox="0 0 1245.6 1978.15">
  <defs>
    <style>
      .cls-1, .cls-2, .cls-3, .cls-4, .cls-5, .cls-6, .cls-7, .cls-8, .cls-9, .cls-10, .cls-11, .cls-12, .cls-13, .cls-14, .cls-15 {
        fill: none;
      }

      .cls-2, .cls-3 {
        stroke-width: 1.5px;
      }

      .cls-2, .cls-3, .cls-4, .cls-5, .cls-16, .cls-17, .cls-18, .cls-6, .cls-19, .cls-20, .cls-7, .cls-8, .cls-9, .cls-10, .cls-11, .cls-12, .cls-13, .cls-14, .cls-15 {
        stroke-miterlimit: 10;
      }

      .cls-2, .cls-18, .cls-6, .cls-7, .cls-13 {
        stroke: #231f20;
      }

      .cls-3, .cls-16, .cls-10, .cls-12, .cls-14 {
        stroke: #603913;
      }

      .cls-4, .cls-5 {
        stroke-width: 3px;
      }

      .cls-4, .cls-19, .cls-8 {
        stroke: #fff;
      }

      .cls-5, .cls-9 {
        stroke: #2bb673;
      }

      .cls-21 {
        clip-path: url(#clippath);
      }

      .cls-16 {
        fill: #be9e7d;
      }

      .cls-16, .cls-12 {
        stroke-width: 1.2px;
      }

      .cls-22, .cls-20 {
        fill: #00979c;
      }

      .cls-23, .cls-17 {
        fill: #e6e7e8;
      }

      .cls-24 {
        fill: #fff;
      }

      .cls-25 {
        fill: #fffafc;
      }

      .cls-26 {
        fill: #803435;
      }

      .cls-27 {
        fill: #b19074;
      }

      .cls-28 {
        fill: #ae8578;
      }

      .cls-29 {
        fill: #c4e7f6;
      }

      .cls-30 {
        fill: #dcbf97;
      }

      .cls-31 {
        fill: #db7777;
      }

      .cls-32 {
        fill: #dc3b28;
      }

      .cls-33 {
        fill: #dc796e;
      }

      .cls-34 {
        fill: #231f20;
      }

      .cls-35 {
        fill: #077370;
      }

      .cls-36, .cls-18 {
        fill: #38386a;
      }

      .cls-37 {
        fill: #26130f;
      }

      .cls-17 {
        stroke: #58595b;
        stroke-width: .2px;
      }

      .cls-18, .cls-7 {
        stroke-width: 2px;
      }

      .cls-6 {
        stroke-width: .7px;
      }

      .cls-19 {
        fill: #754c29;
      }

      .cls-19, .cls-14, .cls-15 {
        stroke-width: .5px;
      }

      .cls-20, .cls-11, .cls-15 {
        stroke: #3c2415;
      }

      .cls-13 {
        stroke-width: 1.2px;
      }
    </style>
    <clipPath id="clippath">
      <path class="cls-1" d="M1220.34,649.25c0,336.89-273.11,610-610,610S.34,986.14,.34,649.25v-164.56l91.01-122.28,94.81-71.77-13.29-189.62L202.12,0h1017.22l1,649.25Z"/>
    </clipPath>
  </defs>
  <circle class="cls-29" cx="610.07" cy="648.46" r="610"/>
  <g class="cls-21">
    <g>
      <path class="cls-30" d="M547.81,967.43s-8.92,66.81,2.16,90.5c11.08,23.7-6.76,49.22-6.76,49.22,0,0-23.85,56.69-45.45,58.39l42.64-557.33"/>
      <path class="cls-19" d="M195.79,1828.79s-15.33,26.83-5.11,62.6c0,0,28.1,37.05,125.19,26.83,0,0,76.65,45.99,166.07,20.44,0,0,74.09-17.88,15.33-66.43,0,0-76.65-58.76-140.52-70.26,0,0-51.1,51.1-160.96,26.83Z"/>
      <path class="cls-19" d="M116.8,1857.85s-15.65,27.39-5.22,63.91c0,0,28.69,37.82,127.81,27.39,0,0,78.25,46.95,169.55,20.87,0,0,75.64-18.26,15.65-67.82,0,0-78.25-59.99-143.46-71.73,0,0-52.17,52.17-164.33,27.39Z"/>
      <path class="cls-30" d="M244.79,259.86s1.42,44.01-21.02,87.02c0,0-5.61,157.07,114.07,169.23,0,0,77.16-49.33,65.07-132.66-1.35-9.29-13.25-19.19-16.78-29.29l-141.33-94.3Z"/>
      <path class="cls-24" d="M238.05,384.52s75.32,74.17,154.74,16.83l-59.66,174.84-95.08-191.68Z"/>
      <path class="cls-30" d="M433.44,65.82s26.24,32.95,25.13,116.15c0,0-2.23,20.1,.56,30.71,2.79,10.61,.12,28.02,.56,40.2,2.46,68.94-28.48,90.46-28.48,90.46,0,0-8.38,22.89-47.46,25.69-39.09,2.79-78.08-7.65-93.16-23.28-15.08-15.64-47-42.05-52.03-67.18,0,0-22.89,6.7-34.06-20.66,0,0-27.92-41.88-3.35-54.72,24.57-12.84,41.32,21.22,41.32,21.22,0,0-45.37-99.37,9.92-142.93,0,0,76.64-65.35,181.06-15.66Z"/>
      <path class="cls-27" d="M64.17,927.65s215.36,123.99,452.31,12.85l-40.27,461.09s1.32,84.31-14.48,163.52c-15.8,79.2-35.54,263.16-35.54,263.16,0,0-44.76,25.55-113.21,7.66,0,0-78.14,84.39-208.47,17.96,0,0-32.38-165.66-12.64-255.08,0,0,10.32-68.47,5.05-134.9,0,0-84.09-427.68-32.75-536.27Z"/>
      <path class="cls-23" d="M361.16,160.99s-34.06-2.85-59.8,14.72c0,0,9.35-24.56,58.68-24.44,0,0,9.07,4.44,1.12,9.72Z"/>
      <path class="cls-23" d="M459.51,166.88c-22.49-7.75-35.02-2.91-35.02-2.91-8.05-5.11,.92-9.74,.92-9.74,15.37-.36,26.9,1.77,35.5,4.85,0,0-.17,8.22-1.41,7.79Z"/>
      <path class="cls-2" d="M200.79,221.85s9.5-14.39,20.15,.29c10.65,14.68,11.23,19.58,11.23,19.58,0,0-15.26-23.32-21.3-4.61"/>
      <path class="cls-17" d="M192.74,208.23s18.33-17.92,33.4,.81c15.07,18.74,13.03,27.7,13.03,27.7l13.03-.81s-45.84-66.39-3.61-95.95c0,0-12.13-51.18,26.75-60.53,38.88-9.36,55.98-49.03,163.77-6,0,0,6.74-59.18-99.97-69.77,0,0-72.2-7.98-91.34,29.49,0,0-47.36,6.95-57.54,70.48-10.18,63.54,2.47,104.59,2.47,104.59Z"/>
      <path class="cls-22" d="M58.86,757.41c11.49-108.65-34.25-61.34-34.25-61.34-69.28-178.36,29.75-270.64,29.75-270.64,48.06-51.19,151.19-74.71,151.19-74.71,29.53,45.24,61.69,75.52,61.69,75.52l60.17,123.8,42.04-125.33,22.57-14.79,19.37-40.45c34.6,14.71,88.85,53.06,88.85,53.06,61.46,44.13,64.61,106.68,64.61,106.68l1.41,217.63s19.59,155.88-14.23,276.27c0,0-29.73-8.62-38.86,2.52-41.61,50.79-162.85,50.28-162.85,50.28-230.88-3.13-308.33-45.02-308.33-45.02"/>
      <path class="cls-35" d="M234.62,322.41s-27.3-3.91-32.66,13.96c-3.44,11.48-34.07,28.93-34.07,28.93,0,0,2.32,42.7,42.11,75.6,0,0,28.16-24.99,57.23-14.66,0,0-58.25-63.27-32.62-103.83Z"/>
      <path class="cls-35" d="M389.82,367.81s32.03,15.36-20.38,56.9c0,0,33.34,3.01,48.26,19.46,0,0,17.13-42.81,6.57-68.55,0,0-13.44-11.37-34.45-7.81Z"/>
      <path class="cls-10" d="M318.99,1835.94s25.06-384.85,1.25-558.69c0,0,31.22-25.76,44.29-81.33"/>
      <path class="cls-37" d="M389.82,367.81s-40.44,4.96-68.06-5.13c0,0-21.78-4.25-44.63-29.22,0,0,29.3,37.65,71.42,40.89,.21,.02,.39,.01,.6,.03,1.94,.13,25.94,1.57,42.09-3.71,0,0-.45-1.89-1.42-2.85Z"/>
      <path class="cls-6" d="M330.23,115.72s30.83,3.25,45.44,6.49c14.6,3.25,56.79-8.11,56.79-8.11"/>
      <path class="cls-23" d="M375.55,258.42s-19.77,14.98-35.95,17.97c0,0,2.91,6.25,9.75,5.05,0,0,27.34-6.09,42.9,.58,0,0,19.83-4.68,38.29,0,0,0,2.14,1.4,6.18,.54,0,0-19.33-13.85-18.75-21.35,0,0-16.16,8.37-28.56-3.46,0,0-4.92,2.51-13.86,.68Z"/>
      <path class="cls-2" d="M400.59,201.12l18.69,40.34s7.96,22.24-10.43,22.79c-15.26,.46-16.23-4.29-16.23-4.29"/>
      <path class="cls-11" d="M507.85,1033.22s36.81-147.22,14.55-283.81c0,0,3.51-146.61-3.57-190.47"/>
      <path class="cls-6" d="M332.82,287.87s-3.18-17.19,7-21.65c10.19-4.46,14.65-24.83,14.65-24.83"/>
      <circle class="cls-3" cx="344.07" cy="189.4" r="33.94"/>
      <circle class="cls-3" cx="451.99" cy="190.31" r="33.94"/>
      <path class="cls-3" d="M418.05,190.31s-17.82-19.19-40.04-.91"/>
      <line class="cls-3" x1="310.14" y1="189.4" x2="213.9" y2="196.51"/>
      <path class="cls-11" d="M350.31,1075.89c26.85-186.73-5.05-388.14-13.08-408.8-8.03-20.65-9.83-117.06-9.83-117.06,0,0,26.68-82.89,42.04-125.33"/>
      <line class="cls-15" x1="267.24" y1="426.23" x2="327.4" y2="550.04"/>
      <g>
        <path class="cls-24" d="M321.37,189.73s-.04-.9,.6-1.67c2.12-2.56,7.04-7.39,15.05-7.69,8.97-.33,14.22,7.91,16.02,10.85,.31,.51,.3,.96,.3,.96,0,0,.05,.5-.24,.86-1.37,1.71-5.97,6.53-14.45,6.98-5.05,.27-12.25-2.19-16.9-8.88-.32-.47-.37-1.07-.37-1.4Z"/>
        <circle class="cls-37" cx="339.93" cy="190.63" r="9.28"/>
        <circle class="cls-24" cx="334.01" cy="188.96" r="2.55"/>
        <path class="cls-13" d="M353.58,191.21s-11.71-21-31.97-3.21"/>
      </g>
      <g>
        <path class="cls-24" d="M426.14,193.62s-.17-.83,.32-1.64c1.6-2.69,5.49-7.88,12.89-9.3,8.29-1.59,14.36,5.32,16.45,7.8,.36,.43,.42,.85,.42,.85,0,0,.12,.46-.1,.83-1.03,1.79-4.62,6.93-12.44,8.55-4.66,.97-11.7-.28-16.98-5.84-.37-.39-.5-.95-.54-1.25Z"/>
        <circle class="cls-37" cx="443.53" cy="191.78" r="8.7"/>
        <circle class="cls-24" cx="437.53" cy="191.27" r="2.44"/>
        <path class="cls-13" d="M455.99,190.73s-13.49-19.16-29.73,1.64"/>
      </g>
      <g>
        <path class="cls-28" d="M427.38,294.82s-14.78-19.27-34.67-12.35c0,0-15.71-9.53-44.57,11.67,0,0,15.29,18.8,43.77,16.68,28.48-2.13,35.47-16,35.47-16Z"/>
        <path class="cls-26" d="M423.27,296.04s-10.59-10.38-31.28-9.87c-20.69,.51-40,8.95-40,8.95,0,0,30.44,2.84,38.95,7.6,0,0,15.09-5.42,32.33-6.68Z"/>
        <path class="cls-24" d="M414.7,290.71s-14.88-10.84-50.03,.06c0,0,30.11-3.32,50.03-.06Z"/>
      </g>
      <path class="cls-20" d="M24.6,696.07c63.56,136.06,174.92,140.34,174.92,140.34,0,0,110.28,7.14,176.67-248.76l18.2-85.3s-81.37-21.41-99.58-21.41c-24.79,0-93.15,179.88-93.15,179.88,0,0-36.04-125.71-83.52-190.59"/>
      <g>
        <path class="cls-30" d="M299.1,480.57s7.54-46,12.62-74.61l-29.48-65.09s11.57-9.89,25.22,5.83c13.65,15.72,23.91,30.06,23.91,30.06,0,0,47.65-32.28,56.18-27.99,0,0,8.41,.52,10.03,6.8s-5.05,13.67-5.05,13.67c0,0,9.03,2.28,12.04,7.31s-.91,12.05-.91,12.05c0,0,17.69,3.93,9.49,21.61,0,0,19.08,2.68,7.86,23.87l-52.66,60.78"/>
        <path class="cls-12" d="M365.07,386.33l27.45-17.1s14.72-20.72-10.98-21.79l-50.18,29.31s-30.43-52.16-49.13-35.89l29.48,65.09-1.91,16.44"/>
        <path class="cls-16" d="M403.65,388.59s-11.33,13.87-20.54,16.52"/>
        <line class="cls-16" x1="413.14" y1="410.2" x2="401.48" y2="422.56"/>
      </g>
    </g>
    <g>
      <path class="cls-37" d="M838.09,378.03s96.34,158.83,337.87,47.02c0,0-23.04-18.94,.74-55.45,64.17-98.51-10.6-154.54-10.6-154.54,0,0,45.61-80.17-38.39-136.02,0,0-32.69-108.47-190.77-67.96,0,0-102.54-14.31-102.57,120.23,0,0-47.58,49.46-12.33,131.25,0,0-38.42,56.94,16.06,115.47Z"/>
      <path class="cls-30" d="M1058.46,255.93s-20.64,106.03,39.34,122.45c0,0-12.98,155.27-156.42,159.75,0,0,5.31-106.43-54.93-163.32,0,0,43.02-14.51,43.57-39.49,.59-26.44-7.76,.82-7.76,.82l136.2-80.21"/>
      <path class="cls-30" d="M1065.98,206.45s-105.2-39.17-118.32-133.36c0,0-91.81,1.19-85,100.89,0,0,3.75,19.49,.02,29.56,0,0-7.89,25.98,3.76,51.35,17.45,37.97,34.89,65.43,34.89,65.43,0,0,10.72,18.25,40.41,20.03,0,0,20.9,.41,48.28-15.37,0,0,68.63-27.31,67.09-66.95,0,0,28.42,20.95,43.77-25.11,0,0,14.52-64.1-34.92-26.46Z"/>
      <path class="cls-37" d="M958.44,160.33s40.98-11.44,59.23,2.43c0,0-13.24-21.66-59.94-12.15,0,0-8.35,5.93,.71,9.71Z"/>
      <path class="cls-37" d="M861.41,146.49c1.05-2.06,21.67-.93,40.21,4.47,0,0,7.84,6.6-1.51,9.62,0,0-33.12-14.62-39.37-4.02,0,0-1.94-4.99,.67-10.07Z"/>
      <path class="cls-2" d="M921.48,242.57c-28.77-4.1-11.19-28.05-11.19-28.05l17.6-23.59"/>
      <path class="cls-2" d="M1097.48,219.53s-9.31-28.16-32.44,15.57c0,0,18.89-18.95,21.41-1.94"/>
      <path class="cls-37" d="M924.74,336.86s8.83,8.85,41.18-1.03c0,0,28.26-8.18,51.82-25.58,0,0-30.25,30.91-69.59,34.13,0,0-10.57,2.68-25.13-3.21,0,0,2.27-.15,1.73-4.31Z"/>
      <path class="cls-31" d="M979.02,265.27s-19.31-6.84-42.88-1.19c0,0-19.97-4.85-38.26-1.57,0,0,.68,32.59,30.87,41.03,30.2,8.44,50.06-19.26,50.27-38.27Z"/>
      <path class="cls-26" d="M974.03,267.37s-.89,28.78-38.29,27.24c-33.96-1.4-33.18-27.01-33.18-27.01,0,0,38.19,3.3,71.47-.23Z"/>
      <path class="cls-24" d="M969.38,267.59s-9.82,12.94-38.7,10.35c0,0-17.89,.16-24.98-9.64,0,0,37.26,2.34,63.67-.72Z"/>
      <g>
        <path class="cls-24" d="M998.53,186.21s.08-.88-.52-1.66c-1.97-2.59-6.58-7.51-14.4-8.12-8.75-.69-14.22,7.16-16.1,9.96-.32,.48-.33,.93-.33,.93,0,0-.07,.49,.2,.85,1.27,1.73,5.57,6.62,13.85,7.4,4.93,.46,12.06-1.65,16.88-8.01,.34-.44,.4-1.03,.42-1.35Z"/>
        <circle class="cls-37" cx="980.36" cy="186.34" r="9.08"/>
        <circle class="cls-24" cx="986.21" cy="184.95" r="2.49"/>
        <path class="cls-2" d="M966.98,186.36s12.29-20.06,31.38-1.86"/>
      </g>
      <g>
        <path class="cls-24" d="M895.99,184.7s.2-.81-.24-1.62c-1.46-2.69-5.05-7.92-12.23-9.61-8.04-1.89-14.25,4.62-16.39,6.96-.37,.4-.44,.82-.44,.82,0,0-.13,.44,.06,.82,.93,1.79,4.24,6.96,11.82,8.86,4.52,1.14,11.45,.19,16.84-5.03,.37-.36,.52-.9,.58-1.2Z"/>
        <circle class="cls-37" cx="879.06" cy="182.21" r="8.51"/>
        <circle class="cls-24" cx="884.95" cy="181.95" r="2.38"/>
        <path class="cls-2" d="M866.92,180.67s13.96-18.19,29,2.8"/>
      </g>
      <g>
        <path class="cls-34" d="M1032.2,1789.28s9.23,6.92,4.61,20.76l-4.61,71.5s-13.84,14.99-48.44,11.53l-31.14-12.69v-20.76s-58.82,58.82-58.82,58.82c0,0-12.82,8.22-59.59,15.18-47.82,7.12-62.21-17.39-62.21-17.39,0,0-36.15-34.88-20.01-48.71l280.2-78.24Z"/>
        <path class="cls-30" d="M1010.29,1724.7c26.17,40.18,19.21,72.36,19.21,72.36,0,0-18.39,39.57-54.96,38.35-36.57-1.22-75.73,55.64-75.73,55.64-20.58,15.15-79.19,24.92-79.19,24.92-41.28,6.9-29.67-16.75-29.67-16.75-16.84,.81-10.26-11.85-10.26-11.85-15.19,3.87-10.45-8.62-10.45-8.62-8.35-5.31-2.7-12.36-2.7-12.36-6.48-1.62-2.12-5.88-.25-7.07,7.04-4.46,12.84-5.2,12.84-5.2l36.17-6.95,21.16-9.7,27.74-30.85c26.1-33.06,33.06-55.67,33.06-55.67l-1.38-30.63-27.6-208.36,45.4-9.82,110.62,28.55s-3.39,95.61-13.38,130.58c-9.99,34.97-.65,63.42-.65,63.42"/>
        <path class="cls-14" d="M789.96,1899.22s1.93-9.33,16.67-11.15"/>
        <path class="cls-14" d="M779.7,1887.37s8.15-11.31,18.95-10.82"/>
        <path class="cls-14" d="M769.25,1878.75s8.8-12.53,20.76-12.64"/>
        <path class="cls-14" d="M766.55,1866.39s6.1-8.63,15.82-8.8"/>
        <path class="cls-34" d="M989.53,1836.57l16.15-41.52,31.14,14.99s10.38-9.23-4.61-20.76c-14.99-11.53-24.22-11.53-24.22-11.53l14.99-27.68s-3.46-24.22-12.69-25.37c0,0-5.77,27.68-16.15,40.36,0,0-53.54-13.43-97.36-29.57l-2.99,17.71,99.2,31.47-18.45,50.74,14.99,1.15Z"/>
        <path class="cls-34" d="M839.64,1832.24s10.73,23.06,59.17,58.81c0,0-18.95,27.6-40.87,27.6,0,0-22.48-68.11-55.92-68.11,0,0,28.39-20.61,37.62-18.3Z"/>
      </g>
      <g>
        <path class="cls-34" d="M1146.56,1822.26s9.23,6.92,4.61,20.76l-4.61,71.5s-13.84,14.99-48.44,11.53l-31.14-12.69v-20.76s-58.82,58.82-58.82,58.82c0,0-12.82,8.22-59.59,15.18-47.82,7.12-71.73-11.19-71.73-11.19,0,0-48.19-32.45-32.05-46.29l301.76-86.87Z"/>
        <path class="cls-30" d="M1019.64,1729.67c.96-80.44-15.55-182.77-15.55-182.77,0,0,128.52-52.78,141,2.73,12.48,55.5-13.41,144.61-13.41,144.61-11.49,59.38,1.92,83.32,1.92,83.32,19.86,35.86,5.75,62.25,5.75,62.25,0,0-12.14,25.68-50.45,28.59-35.72,2.71-81.7,62.39-81.7,62.39-24.9,30.65-66.87,21.4-66.87,21.4-10.06,3.45-16.34-4.33-16.34-4.33-19.65,2.42-23.73-7.71-23.73-7.71-18.3,1.92-25.44-9.83-25.44-9.83-11.27,2.67-16.29-10.79-16.29-10.79-13.47-13.07-9.22-16.5-4.43-25.03,4.79-8.54,34.25-4.78,34.25-4.78l41.74-11.3,23.93-13.2,29.25-41.69c16.28-19.15,24.9-37.35,24.9-37.35l11.49-56.5Z"/>
        <path class="cls-14" d="M896.46,1897.36l-21.49,8.02s-14.26,2.31-16.46,14.15"/>
        <path class="cls-14" d="M908.05,1905.7s-35.8,10.8-34.07,19.84l.83,4.77"/>
        <path class="cls-14" d="M920.83,1919.39s-20.47,5.95-20.58,20.76"/>
        <path class="cls-14" d="M932.14,1935.99s-10.64,2.72-8.16,11.86"/>
        <path class="cls-34" d="M1103.88,1869.55l16.15-41.52,31.14,14.99s10.38-9.23-4.61-20.76c-14.99-11.53-24.22-11.53-24.22-11.53l14.99-27.68s-3.46-24.22-12.69-25.37c0,0-5.77,27.68-16.15,40.36,0,0-53.54-13.43-97.36-29.57l-2.99,17.71,99.2,31.47-18.45,50.74,14.99,1.15Z"/>
        <path class="cls-14" d="M1004.41,1795.26l-50.42,69.96-32.95,16.88-32.71,7.62s-41.57-7.28-38.58,18.4"/>
        <path class="cls-34" d="M953.99,1865.22s10.73,23.06,59.17,58.81c0,0-18.95,27.6-40.87,27.6,0,0-22.48-68.11-55.92-68.11,0,0,28.39-20.61,37.62-18.3Z"/>
        <line class="cls-14" x1="1016.74" y1="1637.88" x2="1006.88" y2="1568.8"/>
      </g>
      <path class="cls-36" d="M1156.49,792.82s83.23,195.29,71.76,429.53c-11.47,234.24,17.36,332.63,17.36,332.63,0,0-95.98,35.92-145.12,6.43-49.14-29.48-111.43,19.05-111.43,19.05,0,0-35.19,10.36-55.59,5.38-26.13-6.38-40.65-28.11-60.97-24.21-29.76,5.71-90.04,18.79-123.12-19.38,0,0,28.98-49.65,14.63-133.94,0,0-31.64-347.54,61.51-612.38,0,0,99.7,115.18,330.98-3.12Z"/>
      <path class="cls-36" d="M1172.12,671.26l-15.63,121.56s-210.76,128.02-330.98,3.12c0,0-118.22-69.07-54.64-241.99,0,0-7.4-111.8,66.42-150.45,0,0,43.84-19.02,65.98-37.38,0,0,41.75,35.38,54.24,71.29,12.49,35.91,19.44,38.49,19.44,38.49,0,0-5.5-32.97,104.19-104.7,0,0,48.9,9.96,77.86,27.63,0,0,46.73,19.02,63.17,65.71"/>
      <path class="cls-25" d="M977.26,840.19s-20.33-223.67,15.82-359.24c0,0,6.65-22.89,28.69-43.86,0,0,45.47-45.28,84.76-60.32,0,0-10.5-4.86-25.38-5.58,0,0-102.79,63.13-104.19,104.7,0,0-28.08-82.12-73.68-109.78,0,0-6.55,6.02-12.6,9.04,0,0,59.2,42.35,70.87,108.46,0,0-10.33,85.67-8.7,357.8,0,0,12.2,2.43,24.43-1.23Z"/>
      <g>
        <circle class="cls-32" cx="928.26" cy="750.99" r="12.13"/>
        <circle class="cls-33" cx="913.97" cy="751.92" r="12.13"/>
        <circle class="cls-33" cx="935.89" cy="762.66" r="12.13"/>
        <circle class="cls-32" cx="911.27" cy="764.45" r="12.13"/>
        <circle class="cls-33" cx="921.65" cy="774.72" r="12.13"/>
        <circle class="cls-32" cx="931.2" cy="773" r="12.13"/>
      </g>
      <g>
        <circle class="cls-32" cx="928.54" cy="627.83" r="12.13"/>
        <circle class="cls-33" cx="914.24" cy="628.76" r="12.13"/>
        <circle class="cls-33" cx="936.16" cy="639.5" r="12.13"/>
        <circle class="cls-32" cx="911.55" cy="641.29" r="12.13"/>
        <circle class="cls-33" cx="921.93" cy="651.56" r="12.13"/>
        <circle class="cls-32" cx="931.47" cy="649.84" r="12.13"/>
      </g>
      <g>
        <circle class="cls-32" cx="933.75" cy="497.41" r="12.13"/>
        <circle class="cls-33" cx="919.46" cy="498.34" r="12.13"/>
        <circle class="cls-33" cx="941.38" cy="509.08" r="12.13"/>
        <circle class="cls-32" cx="916.77" cy="510.87" r="12.13"/>
        <circle class="cls-33" cx="927.14" cy="521.14" r="12.13"/>
        <circle class="cls-32" cx="936.69" cy="519.42" r="12.13"/>
      </g>
      <g>
        <circle class="cls-32" cx="1008.09" cy="686.52" r="12.13"/>
        <circle class="cls-33" cx="993.8" cy="687.45" r="12.13"/>
        <circle class="cls-33" cx="1015.72" cy="698.19" r="12.13"/>
        <circle class="cls-32" cx="991.11" cy="699.98" r="12.13"/>
        <circle class="cls-33" cx="1001.48" cy="710.25" r="12.13"/>
        <circle class="cls-32" cx="1011.03" cy="708.53" r="12.13"/>
      </g>
      <g>
        <circle class="cls-32" cx="1133.81" cy="1518.04" r="12.13"/>
        <circle class="cls-33" cx="1119.52" cy="1518.97" r="12.13"/>
        <circle class="cls-33" cx="1141.44" cy="1529.71" r="12.13"/>
        <circle class="cls-32" cx="1116.82" cy="1531.5" r="12.13"/>
        <circle class="cls-33" cx="1127.2" cy="1541.77" r="12.13"/>
        <circle class="cls-32" cx="1136.75" cy="1540.05" r="12.13"/>
      </g>
      <g>
        <circle class="cls-32" cx="1001.16" cy="1524.9" r="12.13"/>
        <circle class="cls-33" cx="986.86" cy="1525.82" r="12.13"/>
        <circle class="cls-33" cx="1008.78" cy="1536.57" r="12.13"/>
        <circle class="cls-32" cx="984.17" cy="1538.35" r="12.13"/>
        <circle class="cls-33" cx="994.54" cy="1548.62" r="12.13"/>
        <circle class="cls-32" cx="1004.09" cy="1546.9" r="12.13"/>
      </g>
      <g>
        <circle class="cls-32" cx="865.93" cy="1522.59" r="12.13"/>
        <circle class="cls-33" cx="851.64" cy="1523.52" r="12.13"/>
        <circle class="cls-33" cx="873.56" cy="1534.26" r="12.13"/>
        <circle class="cls-32" cx="848.94" cy="1536.05" r="12.13"/>
        <circle class="cls-33" cx="859.32" cy="1546.32" r="12.13"/>
        <circle class="cls-32" cx="868.87" cy="1544.6" r="12.13"/>
      </g>
      <g>
        <circle class="cls-32" cx="995.74" cy="612.26" r="10.67"/>
        <circle class="cls-32" cx="1003.25" cy="651.23" r="10.67"/>
        <circle class="cls-32" cx="984.29" cy="633.87" r="10.67"/>
        <circle class="cls-32" cx="1024.47" cy="639.51" r="10.67"/>
        <circle class="cls-32" cx="1019.66" cy="615.6" r="10.67"/>
        <ellipse class="cls-5" cx="1005.54" cy="630.7" rx="12.27" ry="12.79"/>
      </g>
      <g>
        <circle class="cls-32" cx="907.58" cy="683.74" r="10.67"/>
        <circle class="cls-32" cx="915.1" cy="722.71" r="10.67"/>
        <circle class="cls-32" cx="896.13" cy="705.35" r="10.67"/>
        <circle class="cls-32" cx="936.31" cy="710.99" r="10.67"/>
        <circle class="cls-32" cx="931.5" cy="687.08" r="10.67"/>
        <ellipse class="cls-5" cx="917.38" cy="702.18" rx="12.27" ry="12.79"/>
      </g>
      <g>
        <circle class="cls-32" cx="912.8" cy="558.53" r="10.67"/>
        <circle class="cls-32" cx="920.31" cy="597.51" r="10.67"/>
        <circle class="cls-32" cx="901.35" cy="580.15" r="10.67"/>
        <circle class="cls-32" cx="941.53" cy="585.79" r="10.67"/>
        <circle class="cls-32" cx="936.72" cy="561.88" r="10.67"/>
        <ellipse class="cls-5" cx="922.6" cy="576.98" rx="12.27" ry="12.79"/>
      </g>
      <g>
        <circle class="cls-32" cx="999.22" cy="744.05" r="10.67"/>
        <circle class="cls-32" cx="1006.73" cy="783.02" r="10.67"/>
        <circle class="cls-32" cx="987.77" cy="765.67" r="10.67"/>
        <circle class="cls-32" cx="1027.95" cy="771.31" r="10.67"/>
        <circle class="cls-32" cx="1023.14" cy="747.4" r="10.67"/>
        <ellipse class="cls-5" cx="1009.02" cy="762.5" rx="12.27" ry="12.79"/>
      </g>
      <g>
        <circle class="cls-32" cx="1193.04" cy="1509.31" r="10.67"/>
        <circle class="cls-32" cx="1200.56" cy="1548.28" r="10.67"/>
        <circle class="cls-32" cx="1181.6" cy="1530.93" r="10.67"/>
        <circle class="cls-32" cx="1221.78" cy="1536.57" r="10.67"/>
        <circle class="cls-32" cx="1216.97" cy="1512.66" r="10.67"/>
        <ellipse class="cls-9" cx="1202.85" cy="1527.76" rx="12.27" ry="12.79"/>
      </g>
      <g>
        <circle class="cls-32" cx="1050.61" cy="1495.81" r="10.67"/>
        <circle class="cls-32" cx="1058.12" cy="1534.78" r="10.67"/>
        <circle class="cls-32" cx="1039.16" cy="1517.42" r="10.67"/>
        <circle class="cls-32" cx="1079.34" cy="1523.06" r="10.67"/>
        <circle class="cls-32" cx="1074.53" cy="1499.15" r="10.67"/>
        <ellipse class="cls-9" cx="1060.41" cy="1514.25" rx="12.27" ry="12.79"/>
      </g>
      <g>
        <circle class="cls-32" cx="917.99" cy="1524.05" r="10.67"/>
        <circle class="cls-32" cx="925.51" cy="1563.02" r="10.67"/>
        <circle class="cls-32" cx="906.54" cy="1545.66" r="10.67"/>
        <circle class="cls-32" cx="946.72" cy="1551.3" r="10.67"/>
        <circle class="cls-32" cx="941.91" cy="1527.39" r="10.67"/>
        <ellipse class="cls-9" cx="927.79" cy="1542.49" rx="12.27" ry="12.79"/>
      </g>
      <g>
        <circle class="cls-32" cx="790.45" cy="1513.37" r="10.67"/>
        <circle class="cls-32" cx="797.97" cy="1552.34" r="10.67"/>
        <circle class="cls-32" cx="779.01" cy="1534.98" r="10.67"/>
        <circle class="cls-32" cx="819.19" cy="1540.62" r="10.67"/>
        <circle class="cls-32" cx="814.37" cy="1516.71" r="10.67"/>
        <ellipse class="cls-9" cx="800.26" cy="1531.81" rx="12.27" ry="12.79"/>
      </g>
      <g>
        <circle class="cls-32" cx="1013.36" cy="488.29" r="10.67"/>
        <circle class="cls-32" cx="1020.88" cy="527.26" r="10.67"/>
        <circle class="cls-32" cx="1001.92" cy="509.91" r="10.67"/>
        <circle class="cls-32" cx="1042.1" cy="515.55" r="10.67"/>
        <circle class="cls-32" cx="1037.29" cy="491.64" r="10.67"/>
        <ellipse class="cls-5" cx="1023.17" cy="506.74" rx="12.27" ry="12.79"/>
      </g>
      <path class="cls-8" d="M1156.49,792.82s-209.96,115.13-330.98,3.12"/>
      <g>
        <circle class="cls-32" cx="1011.62" cy="556.49" r="12.13"/>
        <circle class="cls-33" cx="997.33" cy="557.42" r="12.13"/>
        <circle class="cls-33" cx="1019.24" cy="568.16" r="12.13"/>
        <circle class="cls-32" cx="994.63" cy="569.94" r="12.13"/>
        <circle class="cls-33" cx="1005.01" cy="580.22" r="12.13"/>
        <circle class="cls-32" cx="1014.56" cy="578.5" r="12.13"/>
      </g>
      <path class="cls-7" d="M825.51,795.94l.91-115.42s-10.16-71.2,4.4-123.83"/>
      <path class="cls-30" d="M931.03,464.16l-9.26-20.57s20.05-46.28,16.45-55.02-4.63-36.51-4.63-36.51c0,0,16.97-40.11-1.54-34.45-18.51,5.66-22.11,22.62-22.11,26.22s-2.57,19.54-2.57,19.54l-8.23-10.28,1.54-13.88c8.74,1.54,10.88-9.59,10.88-9.59l-12.94-6.87c-19.03-.51-21.08,9.26-21.08,9.26l-4.63,26.22c-23.14-1.54-24.17,13.37-24.17,13.37-12.34,3.09-7.2,22.11-7.2,22.11-9.26,1.03-4.11,20.57-4.11,20.57l32.91,48.34,5.14,20.57,16.4,85.89s67.72-1.59,83.65-20.71l-44.52-84.21Z"/>
      <path class="cls-10" d="M898.64,322.75s13.08,5.24,12.86,7.71c-.48,5.2-4.61,10.06-10.8,8.74l-1.54,13.88,8.23,10.28c6.81,2.54,11.9,16.67,11.9,16.67"/>
      <path class="cls-10" d="M935.94,405.89s4.21-14.25,.97-28.17c-3.24-13.92-.32-29.46-.32-29.46,0,0,7.12-21.37,3.89-27.84-3.24-6.48-11.33-1.94-11.33-1.94,0,0-16.84,10.36-18.78,19.75s-2.99,25.16-2.99,25.16"/>
      <path class="cls-30" d="M864.89,795.29s94.78,1.15,121.3-15.43l-18.24-77.36-121.57,1.66"/>
      <path class="cls-18" d="M764.24,709.78c24.68-24.68,64.51-4.37,64.51-4.37,27.35-3.33,58.66-7.25,58.66-7.25l23.51-15.53,2.53,33.84s-17.38,10.73-7.07,21.72c10.3,10.98,8.08,32.32,8.08,32.32-7.58,15.66-10.61,31.82-10.61,31.82l-38.95-7.04c-163.06,23.98-144.57-51.14-144.57-51.14-21.64-122.94,72.78-294.07,72.78-294.07,0,0,11.71-29.53,38.59-41.85"/>
      <path class="cls-18" d="M1147,423.41c-58.47-23.77-128.51,225.53-128.51,225.53l-37.1-66.64,7.11-43.55s-41.96-2.53-47.1,7.11c-5.14,9.64-28.6,12.66-28.6,12.66,0,0-26,1.31-36.28,.67-10.28-.64-11.55,17.77-11.55,17.77l31.1,28.44s3.16,178.81,110.66,188.28,193.22-190.01,203.53-224.18c14.86-49.25,11.91-104.98,11.91-104.98"/>
      <path class="cls-4" d="M901.02,605.78s41.35,12.02,71.64-16.71"/>
    </g>
  </g>
</svg>